<svg xmlns="http://www.w3.org/2000/svg" viewBox="0 0 80 80" fill="none"><rect x="8" y="28" width="28" height="36" rx="2" stroke="#2563EB" stroke-width="2" fill="#E0EDFF"></rect><rect x="14" y="36" width="6" height="6" rx="1" stroke="#2563EB" stroke-width="1.5" fill="white"></rect><rect x="24" y="36" width="6" height="6" rx="1" stroke="#2563EB" stroke-width="1.5" fill="white"></rect><rect x="18" y="52" width="8" height="12" rx="1" stroke="#2563EB" stroke-width="1.5" fill="white"></rect><rect x="32" y="20" width="40" height="52" rx="2" stroke="#2563EB" stroke-width="2.5" fill="white"></rect><path d="M28 20 L52 4 L76 20" stroke="#2563EB" stroke-width="2.5" fill="none" stroke-linecap="round" stroke-linejoin="round"></path><rect x="40" y="30" width="8" height="8" rx="1" stroke="#2563EB" stroke-width="2" fill="#E0EDFF"></rect><rect x="56" y="30" width="8" height="8" rx="1" stroke="#2563EB" stroke-width="2" fill="#E0EDFF"></rect><rect x="40" y="46" width="8" height="8" rx="1" stroke="#2563EB" stroke-width="2" fill="#E0EDFF"></rect><rect x="56" y="46" width="8" height="8" rx="1" stroke="#2563EB" stroke-width="2" fill="#E0EDFF"></rect><rect x="46" y="58" width="12" height="14" rx="1" stroke="#2563EB" stroke-width="2" fill="#E0EDFF"></rect><path d="M36 46 Q30 46 26 42" stroke="#2563EB" stroke-width="1.5" stroke-dasharray="3 2"></path></svg>