<svg xmlns="http://www.w3.org/2000/svg" viewBox="0 0 80 80" fill="none"><path d="M40 8            C46 8 50 12 50 18            C50 24 46 28 40 28            C34 28 30 24 30 18            C30 12 34 8 40 8" stroke="#2563EB" stroke-width="2.5" fill="white"></path><path d="M32 28            C28 32 24 38 24 46            L24 72            L34 72            L34 52            L46 52            L46 72            L56 72            L56 46            C56 38 52 32 48 28" stroke="#2563EB" stroke-width="2.5" fill="white"></path><path d="M28 42 Q34 44 40 42 Q46 40 52 42" stroke="#2563EB" stroke-width="1.5" fill="none" stroke-dasharray="4 2"></path><path d="M30 50 Q36 48 40 50 Q44 52 50 50" stroke="#2563EB" stroke-width="1.5" fill="none" stroke-dasharray="4 2"></path><ellipse cx="40" cy="46" rx="10" ry="6" fill="#E0EDFF" stroke="#2563EB" stroke-width="1.5"></ellipse></svg>