<svg xmlns="http://www.w3.org/2000/svg" viewBox="0 0 80 80" fill="none"><ellipse cx="40" cy="40" rx="24" ry="30" stroke="#2563EB" stroke-width="2.5" fill="white"></ellipse><path d="M20 28 Q28 16 40 14 Q52 16 60 28" stroke="#2563EB" stroke-width="2" fill="none"></path><ellipse cx="32" cy="36" rx="4" ry="2.5" stroke="#2563EB" stroke-width="2" fill="none"></ellipse><ellipse cx="48" cy="36" rx="4" ry="2.5" stroke="#2563EB" stroke-width="2" fill="none"></ellipse><path d="M40 40 L40 48 L36 50" stroke="#2563EB" stroke-width="1.5" fill="none" stroke-linecap="round"></path><path d="M32 56 Q40 62 48 56" stroke="#2563EB" stroke-width="2" fill="none" stroke-linecap="round"></path><path d="M62 20 L64 16 L66 20 L70 22 L66 24 L64 28 L62 24 L58 22 Z" fill="#2563EB"></path><path d="M14 44 L15.5 41 L17 44 L20 45.5 L17 47 L15.5 50 L14 47 L11 45.5 Z" fill="#2563EB"></path><circle cx="68" cy="38" r="2" fill="#2563EB"></circle></svg>