<svg xmlns="http://www.w3.org/2000/svg" viewBox="0 0 80 80" fill="none"><path d="M40 4 L68 16 L68 40 C68 58 40 76 40 76 C40 76 12 58 12 40 L12 16 L40 4 Z" stroke="#2563EB" stroke-width="2.5" fill="white"></path><path d="M40 12 L60 22 L60 40 C60 54 40 68 40 68 C40 68 20 54 20 40 L20 22 L40 12 Z" fill="#E0EDFF"></path><path d="M28 40 L36 48 L52 32" stroke="#2563EB" stroke-width="4" stroke-linecap="round" stroke-linejoin="round" fill="none"></path><rect x="34" y="6" width="12" height="8" rx="1" fill="#2563EB"></rect><path d="M36 6 L36 2 Q40 -1 44 2 L44 6" stroke="#2563EB" stroke-width="2" fill="none"></path></svg>