<svg xmlns="http://www.w3.org/2000/svg" viewBox="0 0 80 80" fill="none"><rect x="8" y="35" width="20" height="33" rx="2" stroke="#93C5FD" stroke-width="2" fill="#EFF6FF"></rect><rect x="12" y="40" width="5" height="5" rx="1" fill="#93C5FD"></rect><rect x="19" y="40" width="5" height="5" rx="1" fill="#93C5FD"></rect><rect x="12" y="48" width="5" height="5" rx="1" fill="#93C5FD"></rect><rect x="19" y="48" width="5" height="5" rx="1" fill="#93C5FD"></rect><rect x="14" y="58" width="8" height="10" rx="1" fill="#93C5FD"></rect><rect x="30" y="18" width="24" height="50" rx="2" stroke="#3B82F6" stroke-width="2.5" fill="#EFF6FF"></rect><rect x="35" y="24" width="6" height="6" rx="1" fill="#3B82F6"></rect><rect x="44" y="24" width="6" height="6" rx="1" fill="#3B82F6"></rect><rect x="35" y="34" width="6" height="6" rx="1" fill="#3B82F6"></rect><rect x="44" y="34" width="6" height="6" rx="1" fill="#3B82F6"></rect><rect x="35" y="44" width="6" height="6" rx="1" fill="#3B82F6"></rect><rect x="44" y="44" width="6" height="6" rx="1" fill="#3B82F6"></rect><rect x="38" y="56" width="8" height="12" rx="1" fill="#3B82F6"></rect><rect x="56" y="35" width="20" height="33" rx="2" stroke="#93C5FD" stroke-width="2" fill="#EFF6FF"></rect><rect x="60" y="40" width="5" height="5" rx="1" fill="#93C5FD"></rect><rect x="67" y="40" width="5" height="5" rx="1" fill="#93C5FD"></rect><rect x="60" y="48" width="5" height="5" rx="1" fill="#93C5FD"></rect><rect x="67" y="48" width="5" height="5" rx="1" fill="#93C5FD"></rect><rect x="62" y="58" width="8" height="10" rx="1" fill="#93C5FD"></rect></svg>